<svg id="Names" xmlns="http://www.w3.org/2000/svg" viewBox="0 0 190 190">
  <defs>
    <style>
      .cls-1 {
        fill: #bd1e51;
      }

      .cls-2 {
        fill: #991349;
      }

      .cls-3 {
        fill: #e5b115;
      }
    </style>
  </defs>
  <title>altraderpro-icon-193x230</title>
  <g>
    <path class="cls-1" d="M53.62,201.6A94.53,94.53,0,0,0,95,211.07c2.34,0,4.67-.09,7-.26A82.08,82.08,0,0,1,26.39,130,82.05,82.05,0,0,0,53.62,201.6Z" transform="translate(0 -21.07)"/>
    <path class="cls-1" d="M190,116.07a95,95,0,0,0-190,0v.37A95,95,0,0,1,186.24,102.7,81.62,81.62,0,0,1,190,119.07C190,118.07,190,117.07,190,116.07Z" transform="translate(0 -21.07)"/>
    <path class="cls-2" d="M94.41,32.09A95,95,0,0,0,0,116.44,95,95,0,0,0,53.62,201.6,82.05,82.05,0,0,1,26.39,130c0-.35,0-.69,0-1A82.1,82.1,0,0,1,186.24,102.7,95,95,0,0,0,94.41,32.09Z" transform="translate(0 -21.07)"/>
  </g>
  <path class="cls-3" d="M120.15,171.17h-19v-8.59h32.22a4.12,4.12,0,0,0,0-8.23H101.2v-8.58h52a4.12,4.12,0,0,0,0-8.24h-52V124.39H182a52.67,52.67,0,0,0-1.1-11,73.48,73.48,0,0,0-10.14-24.53H46.26a73.58,73.58,0,0,0-11.69,35.52H69.4v67.4a73,73,0,0,0,31.8,10.87V179.4h19a4.12,4.12,0,1,0,0-8.23Z" transform="translate(0 -21.07)"/>
</svg>
