<svg id="Names" xmlns="http://www.w3.org/2000/svg" viewBox="0 0 64 64">
  <defs>
    <style>
      .cls-1 {
        fill: #bd1e51;
      }

      .cls-2 {
        fill: #991349;
      }

      .cls-3 {
        fill: #e5b115;
      }
    </style>
  </defs>
  <title>altraderpro-icon-64x64</title>
  <g>
    <path class="cls-1" d="M18.06,60.81A31.92,31.92,0,0,0,32,64c.79,0,1.57,0,2.35-.09A27.64,27.64,0,0,1,8.89,36.7a26.59,26.59,0,0,0-.21,3.36A27.56,27.56,0,0,0,18.06,60.81Z"/>
    <path class="cls-1" d="M64,32A32,32,0,0,0,0,32v.12A32,32,0,0,1,62.73,27.5,27.23,27.23,0,0,1,64,33C64,32.68,64,32.34,64,32Z"/>
    <path class="cls-2" d="M31.8,3.71A32,32,0,0,0,0,32.12,32,32,0,0,0,18.06,60.81,27.56,27.56,0,0,1,8.68,40.06a26.59,26.59,0,0,1,.21-3.36c0-.12,0-.23,0-.35A27.65,27.65,0,0,1,62.73,27.5,32,32,0,0,0,31.8,3.71Z"/>
  </g>
  <path class="cls-3" d="M40.47,50.56H34.09V47.67H44.94a1.39,1.39,0,1,0,0-2.77H34.09V42H51.6a1.39,1.39,0,0,0,0-2.77H34.09V34.8h27.2a17.73,17.73,0,0,0-.37-3.7,24.74,24.74,0,0,0-3.42-8.26H15.58a24.73,24.73,0,0,0-3.93,12H23.38V57.51a24.63,24.63,0,0,0,10.71,3.66V53.33h6.38a1.39,1.39,0,1,0,0-2.77Z"/>
</svg>
